<svg width="220" height="65" viewBox="0 0 220 65" fill="none" xmlns="http://www.w3.org/2000/svg">
<path d="M32.0315 0.0712891C14.341 0.0712875 1.40051e-05 14.4123 1.24585e-05 32.1027L1.23828e-05 32.9685C1.08363e-05 50.6589 14.341 64.9999 32.0315 64.9999L32.0315 0.0712891Z" fill="#130061"/>
<path d="M32.0315 48.5515C23.4254 48.5515 16.4487 41.381 16.4487 32.5357C16.4487 23.6905 23.4254 16.52 32.0315 16.52L32.0315 48.5515Z" fill="#660BB7"/>
<path d="M32.0315 48.5515C41.1158 48.5515 48.4801 41.381 48.4801 32.5357C48.4801 23.6905 41.1158 16.52 32.0315 16.52L32.0315 48.5515Z" fill="#A4A093"/>
<path d="M89.4393 38.0938C89.4393 41.0104 88.5278 43.1719 86.7049 44.5781C84.908 45.9583 82.4861 46.6484 79.4393 46.6484C78.2934 46.6484 77.1346 46.5182 75.9627 46.2578C74.7908 45.9974 73.6841 45.6979 72.6424 45.3594V40.9062C73.8403 41.4271 74.921 41.8438 75.8846 42.1562C76.4054 42.3125 77.0174 42.4688 77.7205 42.625C78.4236 42.7552 79.1007 42.8203 79.7518 42.8203C80.4549 42.8203 81.1059 42.7552 81.7049 42.625C82.3299 42.4948 82.8898 42.2474 83.3846 41.8828C83.8533 41.5703 84.257 41.1536 84.5955 40.6328C84.9341 40.0859 85.1033 39.4089 85.1033 38.6016C85.1033 37.8203 84.9471 37.1562 84.6346 36.6094C84.3221 36.0625 83.9445 35.6068 83.5018 35.2422C82.5382 34.4089 81.5096 33.7057 80.4158 33.1328C79.6606 32.7161 78.8143 32.2474 77.8768 31.7266C76.9653 31.1797 76.0929 30.5677 75.2596 29.8906C74.4262 29.2135 73.7361 28.4193 73.1893 27.5078C72.6684 26.5703 72.408 25.5156 72.408 24.3438C72.408 21.6615 73.2153 19.6953 74.8299 18.4453C76.4445 17.1693 78.5278 16.5312 81.0799 16.5312C81.7309 16.5312 82.382 16.5964 83.033 16.7266C83.6841 16.8307 84.27 16.9479 84.7908 17.0781C85.7804 17.3125 86.783 17.599 87.7986 17.9375V22.1562C86.8091 21.6094 85.6893 21.1667 84.4393 20.8281C83.1893 20.4635 81.9914 20.2812 80.8455 20.2812C79.6476 20.2812 78.645 20.6198 77.8377 21.2969C77.0304 21.9479 76.6268 22.8724 76.6268 24.0703C76.6268 24.5651 76.744 25.0078 76.9783 25.3984C77.2387 25.763 77.5382 26.1146 77.8768 26.4531C78.2414 26.8438 78.658 27.2083 79.1268 27.5469C79.5955 27.8594 80.1164 28.1589 80.6893 28.4453C82.5122 29.4349 83.8924 30.2422 84.8299 30.8672C85.7674 31.4661 86.5356 32.0521 87.1346 32.625C87.8377 33.276 88.3846 34.0312 88.7752 34.8906C89.1658 35.724 89.3872 36.7917 89.4393 38.0938ZM92.0955 25.4375H96.2752V38.5625C96.2752 39.9688 96.5747 41.1146 97.1736 42C97.6164 42.625 98.3716 42.9375 99.4393 42.9375C100.351 42.9375 101.21 42.4818 102.017 41.5703C102.825 40.6589 103.411 39.2656 103.775 37.3906C103.879 36.9219 103.944 36.4661 103.971 36.0234C104.023 35.5807 104.049 35.0859 104.049 34.5391V25.4375H108.189V46.2188H104.049V44.1094C103.606 44.7344 102.955 45.3203 102.096 45.8672C101.236 46.4141 100.273 46.6875 99.2049 46.6875C96.9914 46.6875 95.2726 46.0885 94.0486 44.8906C92.7466 43.5885 92.0955 41.7135 92.0955 39.2656V25.4375ZM127.096 46.2188H122.955V44.3828C122.616 44.7214 122.187 45.0729 121.666 45.4375C121.015 45.8542 120.273 46.1667 119.439 46.375C118.606 46.5573 117.629 46.6484 116.51 46.6484C115.989 46.6484 115.364 46.5182 114.635 46.2578C113.931 45.9974 113.332 45.6198 112.838 45.125C112.265 44.6302 111.835 44.0312 111.549 43.3281C111.262 42.625 111.119 41.8307 111.119 40.9453C111.119 39.3568 111.536 37.9766 112.369 36.8047C113.228 35.6328 114.27 34.8385 115.494 34.4219C116.301 34.1354 117.148 33.9271 118.033 33.7969C118.918 33.6667 119.661 33.6016 120.26 33.6016H122.955V32.2344C122.955 32.026 122.903 31.6875 122.799 31.2188C122.721 30.724 122.551 30.2812 122.291 29.8906C122.056 29.5 121.692 29.1745 121.197 28.9141C120.702 28.6536 120.103 28.5234 119.4 28.5234C118.515 28.5234 117.747 28.7708 117.096 29.2656C116.471 29.7344 116.158 30.5417 116.158 31.6875H111.588C111.588 30.5417 111.731 29.6172 112.017 28.9141C112.33 28.1849 112.825 27.5339 113.502 26.9609C114.153 26.362 114.986 25.8802 116.002 25.5156C117.043 25.125 118.176 24.9297 119.4 24.9297C121.9 24.9297 123.801 25.6328 125.103 27.0391C126.431 28.4453 127.096 30.125 127.096 32.0781V46.2188ZM122.955 38.4062V36.9609C122.773 36.9609 122.317 36.974 121.588 37C120.859 37 119.947 37.0911 118.853 37.2734C117.968 37.4297 117.187 37.7552 116.51 38.25C115.728 38.901 115.338 39.6693 115.338 40.5547C115.338 41.4922 115.572 42.1562 116.041 42.5469C116.536 42.9115 117.148 43.0938 117.877 43.0938C118.163 43.0938 118.58 43.0286 119.127 42.8984C119.674 42.7682 120.155 42.5599 120.572 42.2734C121.457 41.6745 122.135 40.9453 122.603 40.0859C122.838 39.6693 122.955 39.1094 122.955 38.4062ZM158.892 46.2188H143.15V17.0781H147.408V42.3516H158.892V46.2188ZM173.736 35.8281C173.736 34.8125 173.619 33.8099 173.385 32.8203C173.15 31.8307 172.812 31.0234 172.369 30.3984C171.952 29.7214 171.444 29.2266 170.846 28.9141C170.247 28.6016 169.635 28.4453 169.01 28.4453C168.385 28.4453 167.773 28.6016 167.174 28.9141C166.575 29.2266 166.054 29.7214 165.611 30.3984C165.194 31.0234 164.869 31.8307 164.635 32.8203C164.4 33.8099 164.283 34.8125 164.283 35.8281C164.283 36.8438 164.4 37.8464 164.635 38.8359C164.869 39.7995 165.194 40.5938 165.611 41.2188C166.054 41.8958 166.575 42.3906 167.174 42.7031C167.773 42.9896 168.385 43.1328 169.01 43.1328C169.635 43.1328 170.247 42.9896 170.846 42.7031C171.444 42.3906 171.952 41.8958 172.369 41.2188C172.812 40.5938 173.15 39.7995 173.385 38.8359C173.619 37.8464 173.736 36.8438 173.736 35.8281ZM178.033 35.8281C178.033 37.2865 177.825 38.7057 177.408 40.0859C176.991 41.4401 176.392 42.612 175.611 43.6016C174.778 44.5911 173.775 45.3464 172.603 45.8672C171.457 46.388 170.26 46.6484 169.01 46.6484C167.76 46.6484 166.549 46.388 165.377 45.8672C164.231 45.3464 163.241 44.5911 162.408 43.6016C161.627 42.612 161.028 41.4401 160.611 40.0859C160.194 38.7057 159.986 37.2865 159.986 35.8281C159.986 34.3698 160.194 32.9635 160.611 31.6094C161.028 30.2292 161.627 29.0443 162.408 28.0547C163.241 27.013 164.231 26.2318 165.377 25.7109C166.549 25.1901 167.76 24.9297 169.01 24.9297C170.26 24.9297 171.457 25.1901 172.603 25.7109C173.775 26.2318 174.778 27.013 175.611 28.0547C176.392 29.0443 176.991 30.2292 177.408 31.6094C177.825 32.9635 178.033 34.3698 178.033 35.8281ZM184.166 35.4375C184.166 36.4531 184.283 37.3646 184.517 38.1719C184.778 38.9531 185.116 39.6693 185.533 40.3203C185.924 40.9714 186.379 41.4661 186.9 41.8047C187.447 42.1432 187.994 42.3125 188.541 42.3125C189.062 42.3125 189.582 42.1302 190.103 41.7656C190.65 41.401 191.132 40.9193 191.549 40.3203C191.965 39.6953 192.291 38.9792 192.525 38.1719C192.76 37.3646 192.877 36.4531 192.877 35.4375C192.877 34.4219 192.76 33.5234 192.525 32.7422C192.317 31.9349 191.991 31.2057 191.549 30.5547C191.132 29.9557 190.65 29.474 190.103 29.1094C189.582 28.7448 189.062 28.5625 188.541 28.5625C187.994 28.5625 187.447 28.7318 186.9 29.0703C186.379 29.4089 185.924 29.8906 185.533 30.5156C185.09 31.1927 184.752 31.9349 184.517 32.7422C184.283 33.5234 184.166 34.4219 184.166 35.4375ZM197.056 43.7578C196.952 47.013 196.106 49.2656 194.517 50.5156C192.851 51.8698 190.533 52.5469 187.564 52.5469C186.627 52.5469 185.572 52.4557 184.4 52.2734C183.228 52.1172 182.2 51.8177 181.314 51.375V47C182.668 47.7292 183.866 48.1979 184.908 48.4062C185.95 48.6406 186.926 48.7578 187.838 48.7578C189.426 48.7578 190.624 48.4714 191.431 47.8984C192.265 47.3516 192.734 46.4661 192.838 45.2422C192.89 44.7734 192.916 44.2396 192.916 43.6406C192.76 43.9271 192.239 44.3568 191.353 44.9297C190.468 45.5547 189.387 45.8672 188.111 45.8672C186.965 45.8672 185.872 45.6198 184.83 45.125C183.788 44.6042 182.916 43.862 182.213 42.8984C181.536 42.013 180.989 40.9453 180.572 39.6953C180.155 38.4453 179.947 36.9609 179.947 35.2422C179.947 33.862 180.116 32.612 180.455 31.4922C180.793 30.3724 181.301 29.3047 181.978 28.2891C182.629 27.2995 183.515 26.4922 184.635 25.8672C185.754 25.2422 186.991 24.9297 188.346 24.9297C190.273 24.9297 191.796 25.724 192.916 27.3125V25.4375H197.056V43.7578ZM213.736 35.8281C213.736 34.8125 213.619 33.8099 213.385 32.8203C213.15 31.8307 212.812 31.0234 212.369 30.3984C211.952 29.7214 211.444 29.2266 210.846 28.9141C210.247 28.6016 209.635 28.4453 209.01 28.4453C208.385 28.4453 207.773 28.6016 207.174 28.9141C206.575 29.2266 206.054 29.7214 205.611 30.3984C205.194 31.0234 204.869 31.8307 204.635 32.8203C204.4 33.8099 204.283 34.8125 204.283 35.8281C204.283 36.8438 204.4 37.8464 204.635 38.8359C204.869 39.7995 205.194 40.5938 205.611 41.2188C206.054 41.8958 206.575 42.3906 207.174 42.7031C207.773 42.9896 208.385 43.1328 209.01 43.1328C209.635 43.1328 210.247 42.9896 210.846 42.7031C211.444 42.3906 211.952 41.8958 212.369 41.2188C212.812 40.5938 213.15 39.7995 213.385 38.8359C213.619 37.8464 213.736 36.8438 213.736 35.8281ZM218.033 35.8281C218.033 37.2865 217.825 38.7057 217.408 40.0859C216.991 41.4401 216.392 42.612 215.611 43.6016C214.778 44.5911 213.775 45.3464 212.603 45.8672C211.457 46.388 210.26 46.6484 209.01 46.6484C207.76 46.6484 206.549 46.388 205.377 45.8672C204.231 45.3464 203.241 44.5911 202.408 43.6016C201.627 42.612 201.028 41.4401 200.611 40.0859C200.194 38.7057 199.986 37.2865 199.986 35.8281C199.986 34.3698 200.194 32.9635 200.611 31.6094C201.028 30.2292 201.627 29.0443 202.408 28.0547C203.241 27.013 204.231 26.2318 205.377 25.7109C206.549 25.1901 207.76 24.9297 209.01 24.9297C210.26 24.9297 211.457 25.1901 212.603 25.7109C213.775 26.2318 214.778 27.013 215.611 28.0547C216.392 29.0443 216.991 30.2292 217.408 31.6094C217.825 32.9635 218.033 34.3698 218.033 35.8281Z" fill="#FFEEFF"/>
</svg>
